<svg xmlns="http://www.w3.org/2000/svg" xml:space="preserve" width="2000" height="207" viewBox="0 0 2000 207" data-version="1" data-id="lg_OEWCpRgOYfSNUFVW7O"><g id="outer-wrapper" data-padding="20" transform="matrix(1,0,0,1,0,0)"><g id="inner-wrapper" transform="matrix(0.96309963099631,0,0,0.96309963099631,10,3.8191881918819206)"><rect width="434.178" height="206.79" x="419.09803448275835" y="-399.935" fill="none" rx="0" ry="0" transform="translate(337.59 400.04)"></rect><path fill="#adc178" d="M841.5170344827584 38.56L838.9570344827583 53.379999999999995Q834.5670344827583 52.27999999999997 829.8070344827584 51.370000000000005Q825.5970344827583 50.44999999999999 820.1970344827583 49.81T808.9470344827583 49.170000000000016Q795.4070344827584 49.170000000000016 789.5470344827584 53.29000000000002T783.6870344827583 66.01000000000005Q783.8770344827583 72.78000000000003 788.6270344827583 77.45000000000005Q793.3870344827583 82.11000000000007 800.5270344827583 86.05000000000007Q807.6670344827584 89.98000000000008 816.1770344827584 93.73000000000008T831.8170344827583 102.3300000000001Q838.9570344827583 107.18000000000012 843.8070344827584 113.68000000000012T848.6570344827584 129.5100000000001Q848.6570344827584 140.31000000000012 843.9870344827583 146.8900000000001Q839.3270344827583 153.48000000000008 832.1870344827583 157.1400000000001T816.5370344827584 162.0800000000001T800.3470344827583 163.36000000000007Q793.0270344827584 163.36000000000007 786.9870344827583 162.45000000000005Q780.9470344827583 161.53000000000003 776.5570344827584 160.44000000000005Q771.4270344827584 159.16000000000008 767.2170344827583 157.51000000000005L770.8770344827584 142.69000000000005Q775.0870344827583 144.52000000000004 779.8470344827583 145.80000000000007Q784.0570344827584 146.89000000000004 789.2670344827583 147.81000000000006Q794.4870344827583 148.72000000000008 800.3470344827583 148.72000000000008Q807.4770344827583 148.72000000000008 813.4270344827584 147.81000000000006Q819.3770344827584 146.89000000000004 823.7670344827584 144.88000000000005T830.6270344827584 139.57000000000005Q833.0970344827584 136.28000000000003 833.0970344827584 131.52000000000004Q832.9170344827584 124.39000000000004 828.4370344827583 119.90000000000003Q823.9470344827583 115.42000000000002 816.5370344827584 111.30000000000001T800.6170344827584 103.34000000000003T784.9670344827583 94.56000000000006Q777.8370344827584 89.62000000000006 772.9870344827584 82.84000000000003Q768.1370344827584 76.07000000000005 768.1370344827584 66.01000000000005Q768.1370344827584 60.150000000000034 770.1470344827584 54.480000000000075T777.0070344827584 44.41000000000008Q781.8570344827584 40.020000000000095 789.6370344827584 37.280000000000086Q797.4170344827584 34.530000000000086 808.9470344827583 34.530000000000086Q815.5370344827584 34.530000000000086 821.4770344827584 35.17000000000007Q827.4270344827584 35.81000000000006 831.8170344827585 36.55000000000007Q836.9470344827583 37.46000000000009 841.5170344827584 38.56000000000006M933.7470344827584 146.54000000000008L936.4970344827584 158.80000000000007Q932.2870344827585 160.08000000000004 927.8070344827585 161.00000000000006Q923.3170344827585 161.91000000000008 917.9170344827584 162.64000000000004Q912.5270344827585 163.37000000000006 906.6670344827584 163.37000000000006Q897.5170344827585 163.37000000000006 889.6470344827584 160.81000000000006T875.9270344827584 152.58000000000004Q870.0670344827585 146.90000000000003 866.6770344827584 137.85000000000002Q863.2970344827585 128.79000000000002 863.2970344827585 115.61000000000001Q863.2970344827585 103.72000000000003 866.5870344827584 94.66000000000003Q869.8870344827584 85.60000000000002 875.6470344827584 79.47000000000003Q881.4170344827584 73.34000000000003 889.1870344827583 70.23000000000002Q896.9670344827583 67.12 906.1170344827584 67.12Q915.0870344827584 67.12 921.6770344827584 70.59000000000003Q928.2570344827584 74.07000000000005 932.5570344827585 80.02000000000004T938.9670344827584 93.93000000000006Q941.0670344827585 101.89000000000004 941.0670344827585 110.67000000000007L938.3270344827584 118.72000000000008H879.2170344827584Q879.2170344827584 124.40000000000009 880.6770344827585 130.0700000000001Q882.1470344827584 135.74000000000012 885.7170344827584 140.3200000000001Q889.2770344827585 144.8900000000001 895.0470344827585 147.73000000000013Q900.8070344827585 150.56000000000012 909.4070344827584 150.56000000000012Q914.8970344827584 150.56000000000012 919.4770344827584 149.92000000000013Q924.0470344827585 149.28000000000014 927.4370344827583 148.46000000000015T933.7470344827584 146.54000000000013M879.7670344827584 107.01000000000016H925.8770344827584Q925.8770344827584 105.73000000000019 925.3370344827584 101.34000000000015Q924.7870344827584 96.95000000000016 922.7670344827584 92.19000000000017Q920.7570344827584 87.43000000000018 916.5470344827584 83.68000000000018T905.3870344827584 79.93000000000018Q897.6970344827583 79.93000000000018 892.7570344827583 83.13000000000017T884.8870344827584 90.72000000000014Q881.9570344827583 95.12000000000012 880.8670344827583 99.69000000000017Q879.7670344827583 104.27000000000015 879.7670344827583 107.01000000000016M961.0170344827583 160.99000000000018V23.91999999999996L975.6570344827584 22.269999999999982V160.98999999999995ZM1009.8770344827584 160.99000000000018V80.83000000000021H992.8570344827584V68.94000000000023H1009.8770344827584Q1009.8770344827584 56.13000000000022 1011.6170344827584 47.25000000000023Q1013.3570344827584 38.38000000000022 1017.1970344827583 32.79000000000025Q1021.0370344827583 27.210000000000264 1027.0770344827583 24.740000000000236T1041.7170344827582 22.27000000000021Q1048.6770344827582 22.27000000000021 1054.7170344827582 24.56000000000023T1064.4170344827585 30.140000000000214L1058.0070344827582 41.12000000000023Q1054.3470344827583 38.38000000000022 1050.4170344827585 36.730000000000246Q1046.4770344827584 35.08000000000027 1041.9070344827583 35.08000000000027Q1035.8670344827583 35.08000000000027 1032.3870344827583 37.730000000000246Q1028.9070344827583 40.39000000000027 1027.1670344827585 44.960000000000264Q1025.4370344827585 49.54000000000025 1024.9770344827584 55.67000000000024T1024.5170344827584 68.94000000000023H1047.3970344827585V80.83000000000021H1024.5170344827584V160.99000000000018Z "></path><path fill="#adc178" d="M1064.2270344827582 161V68.75999999999999L1078.8670344827583 67.12V161ZM1061.8470344827583 42.589999999999975Q1061.8470344827583 38.389999999999986 1064.6870344827582 35.549999999999955T1071.7370344827582 32.70999999999998Q1076.1270344827583 32.70999999999998 1079.1470344827583 35.549999999999955T1082.1670344827583 42.589999999999975Q1082.1670344827583 46.799999999999955 1079.1470344827583 49.639999999999986T1071.7370344827582 52.47999999999996Q1067.5270344827584 52.47999999999996 1064.6870344827582 49.639999999999986T1061.8470344827583 42.589999999999975M1170.5570344827581 146.53999999999996L1173.2970344827584 158.79999999999995Q1169.0870344827583 160.07999999999993 1164.6070344827583 160.99999999999994Q1160.117034482758 161.90999999999997 1154.7270344827582 162.63999999999993Q1149.327034482758 163.36999999999995 1143.4670344827582 163.36999999999995Q1134.3170344827583 163.36999999999995 1126.4470344827582 160.80999999999995T1112.7270344827582 152.57999999999993Q1106.867034482758 146.89999999999992 1103.4870344827582 137.8499999999999Q1100.097034482758 128.7899999999999 1100.097034482758 115.6099999999999Q1100.097034482758 103.71999999999991 1103.3870344827583 94.65999999999991Q1106.6870344827582 85.59999999999991 1112.4470344827582 79.46999999999991Q1118.2170344827582 73.33999999999992 1125.9870344827582 70.2299999999999Q1133.7670344827582 67.11999999999989 1142.9170344827583 67.11999999999989Q1151.8870344827583 67.11999999999989 1158.4770344827582 70.58999999999992Q1165.0670344827583 74.06999999999994 1169.367034482758 80.01999999999992T1175.7670344827582 93.92999999999995Q1177.8770344827583 101.88999999999993 1177.8770344827583 110.66999999999996L1175.1270344827583 118.71999999999997H1116.0170344827582Q1116.0170344827582 124.39999999999998 1117.4870344827582 130.07Q1118.9470344827582 135.74 1122.5170344827582 140.32Q1126.087034482758 144.89 1131.847034482758 147.73000000000002Q1137.617034482758 150.56 1146.2170344827582 150.56Q1151.7070344827582 150.56 1156.2770344827582 149.92000000000002Q1160.8570344827583 149.28000000000003 1164.2370344827582 148.46000000000004Q1167.6270344827583 147.64000000000004 1170.5570344827581 146.54000000000002M1116.5670344827583 107.01000000000005H1162.6870344827582Q1162.6870344827582 105.73000000000008 1162.1370344827583 101.34000000000003T1159.5770344827583 92.19000000000005Q1157.5570344827584 87.43000000000006 1153.3470344827583 83.68000000000006T1142.1870344827582 79.93Q1134.4970344827582 79.93 1129.5570344827581 83.13T1121.6870344827582 90.71999999999997Q1118.7670344827582 95.11999999999995 1117.6670344827583 99.69Q1116.5670344827583 104.26999999999998 1116.5670344827583 107.00999999999999M1285.3730344827584 79.32400000000001C1285.3730344827584 78.49200000000002 1284.7280344827584 77.62799999999999 1283.9270344827582 77.40000000000003L1240.9130344827583 64.92000000000002C1240.1130344827582 64.70100000000002 1240.0080344827581 64.08800000000002 1240.6630344827583 63.59899999999999L1244.4800344827584 60.68700000000001A3.43 3.43 0 0 1 1247.1220344827582 60.20800000000003L1290.0630344827584 72.67800000000005A2.13 2.13 0 0 1 1291.4990344827584 74.60200000000003V142.20200000000006L1290.3650344827583 143.19000000000005L1286.5170344827584 146.53900000000004C1285.8930344827584 147.07900000000006 1285.3730344827584 146.85100000000006 1285.3730344827584 146.01900000000006Z "></path><path fill="#adc178" d="M1297.7490344827584 66.875L1245.0310344827585 51.58699999999999L1244.4490344827586 51.40999999999997C1243.8250344827584 51.67999999999995 1242.7850344827584 52.31499999999994 1242.1290344827585 52.813999999999965L1227.7470344827584 63.75399999999996C1227.0600344827585 64.27399999999994 1227.0600344827585 64.41999999999996 1227.0600344827585 64.41999999999996V138.46799999999996C1227.0600344827585 139.29999999999995 1227.7150344827585 140.15299999999996 1228.5160344827586 140.39199999999994L1280.1730344827586 155.35799999999995C1280.9630344827585 155.58699999999993 1281.6190344827587 155.09799999999996 1281.6190344827587 154.27599999999995V82.14199999999994C1281.6190344827587 81.30999999999995 1280.9630344827588 80.45699999999994 1280.1630344827586 80.22799999999995L1276.8030344827584 79.25099999999998V103.65999999999997L1269.1070344827585 92.67699999999996L1262.6490344827585 99.28099999999995V75.13199999999995L1232.6970344827587 66.44799999999992C1231.8970344827585 66.21999999999991 1231.7820344827587 65.61599999999993 1232.4470344827587 65.11799999999994L1243.7000344827586 56.557999999999936C1244.3660344827586 56.057999999999936 1245.5510344827585 55.82999999999993 1246.3420344827587 56.057999999999936L1293.8280344827585 69.84899999999993A2.13 2.13 0 0 1 1295.2740344827587 71.77299999999991V143.9179999999999A1.51 1.51 0 0 0 1296.7820344827587 145.42599999999987H1297.6660344827587A1.51 1.51 0 0 0 1299.1740344827588 143.9179999999999V68.7779999999999C1299.1740344827588 67.89399999999989 1298.591034482759 67.11399999999992 1297.7590344827588 66.87499999999989 "></path><path fill="#adc178" d="M1265.6550344827583 91.856L1269.4920344827583 87.935L1273.7980344827583 94.07100000000003V78.221L1265.6550344827583 75.86099999999999Z "></path></g><rect width="542" height="207" x="729" y="0" id="space-saver" fill="transparent" stroke="transparent"></rect></g></svg>